<svg width="1280" height="1130" viewBox="0 0 1280 1130" fill="none" xmlns="http://www.w3.org/2000/svg">
<path d="M391 26C580.5 63.0004 565 496.5 888.5 140.5C1391 -382 883.5 768.178 1376 273.678" stroke="white"/>
<path d="M-51 521.823C341.76 165.907 88.7318 986.06 425.473 607.182C818.233 96.0219 411.626 1379.41 1301 645.12" stroke="white"/>
<path d="M181.988 1077.88C175.637 1081.66 168.957 1082.15 167.067 1078.98C165.177 1075.8 168.793 1070.16 175.144 1066.38C181.495 1062.6 184.167 1061.01 192.719 1063.71C191.011 1072.51 188.339 1074.1 181.988 1077.88Z" fill="white"/>
<path d="M166.423 1101.04C162.643 1094.69 162.153 1088.01 165.329 1086.12C168.504 1084.23 174.143 1087.85 177.923 1094.2C181.703 1100.55 183.293 1103.22 180.597 1111.77C171.794 1110.06 170.204 1107.39 166.423 1101.04Z" fill="white"/>
<path d="M178.092 1092.14C171.333 1090.42 166.549 1086.29 167.406 1082.91C168.264 1079.53 174.438 1078.18 181.197 1079.9C187.956 1081.61 190.799 1082.33 194.706 1089.84C187.694 1094.57 184.85 1093.85 178.092 1092.14Z" fill="white"/>
<path d="M152.447 1097.01C154.163 1090.25 158.293 1085.47 161.672 1086.32C165.051 1087.18 166.401 1093.36 164.685 1100.12C162.97 1106.87 162.249 1109.72 154.744 1113.62C150.011 1106.61 150.732 1103.77 152.447 1097.01Z" fill="white"/>
<path d="M143.299 1085.34C149.65 1081.55 156.331 1081.06 158.221 1084.24C160.111 1087.42 156.494 1093.05 150.143 1096.83C143.792 1100.61 141.121 1102.2 132.568 1099.51C134.276 1090.71 136.948 1089.12 143.299 1085.34Z" fill="white"/>
<path d="M158.969 1062.35C162.749 1068.7 163.239 1075.38 160.064 1077.27C156.888 1079.16 151.25 1075.55 147.47 1069.2C143.689 1062.85 142.099 1060.17 144.795 1051.62C153.599 1053.33 155.189 1056 158.969 1062.35Z" fill="white"/>
<path d="M147.307 1071.3C154.066 1073.01 158.85 1077.14 157.993 1080.52C157.135 1083.9 150.961 1085.25 144.202 1083.54C137.443 1081.82 134.6 1081.1 130.693 1073.59C137.705 1068.86 140.549 1069.58 147.307 1071.3Z" fill="white"/>
<path d="M173.285 1066.23C171.57 1072.98 167.44 1077.77 164.061 1076.91C160.681 1076.05 159.332 1069.88 161.047 1063.12C162.763 1056.36 163.484 1053.52 170.989 1049.61C175.722 1056.62 175 1059.47 173.285 1066.23Z" fill="white"/>
<path d="M177.669 1077.98C172.249 1081.2 166.833 1082.1 165.573 1079.98C164.312 1077.87 167.684 1073.53 173.104 1070.31C178.524 1067.08 180.804 1065.73 187.465 1066.95C185.369 1073.4 183.089 1074.75 177.669 1077.98Z" fill="#FF88B4"/>
<path d="M166.414 1096.67C163.188 1091.25 162.29 1085.83 164.408 1084.57C166.526 1083.31 170.858 1086.68 174.084 1092.1C177.31 1097.52 178.667 1099.8 177.438 1106.46C170.997 1104.37 169.64 1102.09 166.414 1096.67Z" fill="#FF88B4"/>
<path d="M175.262 1089.22C169.48 1087.76 165.255 1084.75 165.824 1082.5C166.394 1080.26 171.543 1079.63 177.325 1081.1C183.107 1082.56 185.539 1083.18 189.179 1088.43C183.477 1091.31 181.044 1090.69 175.262 1089.22Z" fill="#FF88B4"/>
<path d="M155.29 1094.23C156.76 1088.44 159.772 1084.2 162.016 1084.77C164.26 1085.34 164.888 1090.5 163.418 1096.29C161.947 1102.09 161.329 1104.52 156.077 1108.17C153.201 1102.46 153.82 1100.02 155.29 1094.23Z" fill="#FF88B4"/>
<path d="M147.724 1085.41C153.144 1082.19 158.559 1081.29 159.82 1083.41C161.081 1085.53 157.709 1089.86 152.289 1093.08C146.869 1096.31 144.589 1097.67 137.928 1096.44C140.024 1090 142.304 1088.64 147.724 1085.41Z" fill="#FF88B4"/>
<path d="M158.978 1066.72C162.204 1072.14 163.102 1077.56 160.984 1078.82C158.866 1080.08 154.534 1076.71 151.308 1071.29C148.082 1065.87 146.725 1063.59 147.954 1056.93C154.395 1059.02 155.753 1061.3 158.978 1066.72Z" fill="#FF88B4"/>
<path d="M150.142 1074.2C155.92 1075.66 160.142 1078.67 159.572 1080.92C159.003 1083.16 153.857 1083.79 148.079 1082.33C142.301 1080.86 139.87 1080.24 136.234 1074.99C141.933 1072.12 144.364 1072.73 150.142 1074.2Z" fill="#FF88B4"/>
<path d="M170.316 1069.11C168.852 1074.88 165.847 1079.09 163.603 1078.52C161.358 1077.95 160.725 1072.81 162.188 1067.05C163.651 1061.28 164.267 1058.86 169.513 1055.23C172.394 1060.92 171.779 1063.34 170.316 1069.11Z" fill="#FF88B4"/>
<circle cx="162.696" cy="1081.7" r="6.17647" transform="rotate(59.2391 162.696 1081.7)" fill="#FF6CA3"/>
<path d="M342.657 677.207C338.452 683.285 332.579 686.508 329.54 684.405C326.501 682.302 327.446 675.671 331.652 669.593C335.857 663.515 337.626 660.958 346.525 659.855C348.631 668.572 346.862 671.129 342.657 677.207Z" fill="white"/>
<path d="M338.127 704.741C332.049 700.536 328.827 694.664 330.929 691.625C333.032 688.586 339.663 689.531 345.741 693.736C351.819 697.941 354.376 699.71 355.479 708.61C346.762 710.715 344.205 708.946 338.127 704.741Z" fill="white"/>
<path d="M345.038 691.792C338.178 693.042 332.11 691.274 331.485 687.844C330.861 684.414 335.915 680.62 342.776 679.371C349.636 678.121 352.522 677.595 359.195 682.797C354.784 690.017 351.898 690.543 345.038 691.792Z" fill="white"/>
<path d="M323.74 706.884C322.491 700.024 324.258 693.956 327.689 693.332C331.119 692.707 334.912 697.762 336.162 704.622C337.411 711.482 337.937 714.368 332.735 721.041C325.515 716.63 324.99 713.744 323.74 706.884Z" fill="white"/>
<path d="M310.567 700.069C314.772 693.991 320.644 690.768 323.683 692.871C326.722 694.973 325.777 701.605 321.572 707.683C317.367 713.761 315.598 716.318 306.698 717.421C304.593 708.704 306.362 706.147 310.567 700.069Z" fill="white"/>
<path d="M315.265 672.651C321.343 676.856 324.566 682.729 322.464 685.768C320.361 688.807 313.729 687.862 307.651 683.657C301.573 679.451 299.016 677.682 297.913 668.783C306.63 666.677 309.187 668.446 315.265 672.651Z" fill="white"/>
<path d="M308.378 685.636C315.238 684.386 321.306 686.154 321.93 689.584C322.555 693.014 317.5 696.808 310.64 698.057C303.78 699.307 300.894 699.832 294.221 694.631C298.632 687.411 301.517 686.885 308.378 685.636Z" fill="white"/>
<path d="M329.897 670.224C331.146 677.084 329.378 683.152 325.948 683.777C322.518 684.401 318.725 679.347 317.475 672.486C316.226 665.626 315.7 662.74 320.901 656.067C328.121 660.478 328.647 663.364 329.897 670.224Z" fill="white"/>
<path d="M338.769 679.091C335.18 684.278 330.628 687.346 328.601 685.944C326.574 684.541 327.84 679.2 331.428 674.013C335.017 668.826 336.526 666.644 343.096 664.993C343.867 671.722 342.357 673.904 338.769 679.091Z" fill="#FF88B4"/>
<path d="M336.301 700.769C331.114 697.18 328.046 692.628 329.449 690.601C330.851 688.574 336.193 689.84 341.38 693.428C346.567 697.017 348.749 698.526 350.4 705.096C343.67 705.867 341.488 704.357 336.301 700.769Z" fill="#FF88B4"/>
<path d="M341.254 690.319C335.386 691.388 330.292 690.408 329.877 688.13C329.462 685.852 333.883 683.139 339.752 682.07C345.62 681.001 348.089 680.551 353.581 683.813C349.592 688.801 347.123 689.25 341.254 690.319Z" fill="#FF88B4"/>
<path d="M325.17 703.175C324.099 697.294 325.077 692.19 327.355 691.775C329.633 691.36 332.348 695.791 333.42 701.672C334.491 707.553 334.941 710.027 331.682 715.529C326.692 711.53 326.241 709.056 325.17 703.175Z" fill="#FF88B4"/>
<path d="M314.624 698.301C318.212 693.115 322.765 690.047 324.792 691.449C326.819 692.851 325.553 698.193 321.964 703.38C318.376 708.567 316.866 710.749 310.297 712.4C309.526 705.67 311.035 703.488 314.624 698.301Z" fill="#FF88B4"/>
<path d="M317.091 676.624C322.278 680.213 325.346 684.765 323.944 686.792C322.541 688.819 317.2 687.553 312.013 683.964C306.826 680.376 304.644 678.866 302.993 672.297C309.722 671.526 311.904 673.035 317.091 676.624Z" fill="#FF88B4"/>
<path d="M312.161 687.095C318.025 686.027 323.116 687.008 323.531 689.286C323.946 691.564 319.528 694.277 313.663 695.345C307.799 696.413 305.332 696.862 299.843 693.6C303.829 688.613 306.296 688.163 312.161 687.095Z" fill="#FF88B4"/>
<path d="M328.394 674.081C329.46 679.933 328.477 685.014 326.199 685.429C323.921 685.844 321.211 681.436 320.145 675.584C319.079 669.731 318.63 667.269 321.894 661.79C326.88 665.767 327.328 668.229 328.394 674.081Z" fill="#FF88B4"/>
<circle cx="326.696" cy="688.696" r="6.17647" transform="rotate(34.6775 326.696 688.696)" fill="#FF6CA3"/>
<path d="M921.158 875.501C920.806 882.883 917.529 888.726 913.838 888.55C910.147 888.375 907.439 882.248 907.79 874.865C908.141 867.483 908.289 864.377 915.256 858.731C921.656 865.013 921.509 868.118 921.158 875.501Z" fill="white"/>
<path d="M931.887 901.26C924.504 900.909 918.662 897.632 918.838 893.941C919.013 890.25 925.14 887.542 932.523 887.893C939.905 888.244 943.011 888.392 948.657 895.359C942.375 901.759 939.269 901.612 931.887 901.26Z" fill="white"/>
<path d="M930.897 886.616C925.738 891.307 919.654 893.018 917.308 890.438C914.963 887.859 917.244 881.965 922.403 877.274C927.563 872.583 929.733 870.61 938.148 871.491C938.227 879.952 936.056 881.925 930.897 886.616Z" fill="white"/>
<path d="M920.814 910.693C916.123 905.533 914.412 899.449 916.991 897.104C919.571 894.759 925.465 897.04 930.156 902.199C934.847 907.359 936.82 909.529 935.938 917.944C927.478 918.023 925.505 915.852 920.814 910.693Z" fill="white"/>
<path d="M906.029 911.882C906.381 904.499 909.658 898.657 913.349 898.833C917.04 899.008 919.748 905.135 919.397 912.518C919.046 919.9 918.898 923.006 911.931 928.652C905.531 922.37 905.678 919.265 906.029 911.882Z" fill="white"/>
<path d="M895.506 886.132C902.888 886.483 908.731 889.761 908.555 893.452C908.379 897.143 902.252 899.851 894.87 899.5C887.487 899.148 884.382 899.001 878.736 892.033C885.018 885.633 888.123 885.781 895.506 886.132Z" fill="white"/>
<path d="M896.534 900.794C901.693 896.104 907.777 894.392 910.122 896.972C912.468 899.552 910.187 905.445 905.027 910.136C899.868 914.827 897.697 916.8 889.283 915.919C889.204 907.459 891.374 905.485 896.534 900.794Z" fill="white"/>
<path d="M906.635 876.329C911.326 881.489 913.038 887.573 910.458 889.918C907.878 892.263 901.984 889.982 897.293 884.823C892.602 879.663 890.629 877.493 891.511 869.078C899.971 868.999 901.944 871.17 906.635 876.329Z" fill="white"/>
<path d="M918.856 879.157C918.556 885.458 916.317 890.47 913.855 890.353C911.393 890.236 909.64 885.033 909.94 878.733C910.24 872.433 910.366 869.783 915.066 864.905C919.282 870.207 919.156 872.857 918.856 879.157Z" fill="#FF88B4"/>
<path d="M928.235 898.856C921.935 898.556 916.923 896.317 917.04 893.855C917.157 891.393 922.359 889.64 928.659 889.94C934.96 890.24 937.61 890.366 942.487 895.066C937.186 899.282 934.535 899.156 928.235 898.856Z" fill="#FF88B4"/>
<path d="M926.907 887.369C922.494 891.382 917.653 893.246 916.095 891.533C914.537 889.819 916.853 885.177 921.266 881.164C925.68 877.151 927.537 875.463 933.923 875.324C933.178 881.668 931.321 883.356 926.907 887.369Z" fill="#FF88B4"/>
<path d="M920.064 906.788C916.042 902.366 914.171 897.517 915.885 895.96C917.598 894.402 922.247 896.725 926.268 901.148C930.289 905.571 931.981 907.431 932.127 913.825C925.777 913.072 924.085 911.211 920.064 906.788Z" fill="#FF88B4"/>
<path d="M908.537 908.235C908.836 901.935 911.075 896.923 913.537 897.04C915.999 897.157 917.752 902.359 917.453 908.659C917.153 914.96 917.027 917.61 912.327 922.487C908.111 917.186 908.237 914.535 908.537 908.235Z" fill="#FF88B4"/>
<path d="M899.157 888.537C905.458 888.836 910.47 891.075 910.353 893.537C910.236 895.999 905.034 897.752 898.733 897.453C892.433 897.153 889.783 897.027 884.905 892.327C890.207 888.111 892.857 888.237 899.157 888.537Z" fill="#FF88B4"/>
<path d="M900.516 900.031C904.927 896.02 909.765 894.158 911.323 895.872C912.88 897.585 910.568 902.225 906.157 906.235C901.746 910.245 899.891 911.932 893.507 912.069C894.25 905.728 896.105 904.041 900.516 900.031Z" fill="#FF88B4"/>
<path d="M907.402 880.397C911.404 884.798 913.259 889.629 911.545 891.187C909.832 892.745 905.199 890.439 901.198 886.038C897.196 881.636 895.512 879.785 895.382 873.409C901.717 874.144 903.4 875.996 907.402 880.397Z" fill="#FF88B4"/>
<circle cx="913.696" cy="893.696" r="6.17647" transform="rotate(2.72336 913.696 893.696)" fill="#FF6CA3"/>
<path d="M1156.34 124.754C1149.5 127.561 1142.82 127.065 1141.42 123.646C1140.02 120.228 1144.42 115.181 1151.26 112.374C1158.09 109.567 1160.97 108.386 1169.03 112.309C1166.05 120.766 1163.18 121.947 1156.34 124.754Z" fill="white"/>
<path d="M1137.54 145.379C1134.74 138.542 1135.23 131.861 1138.65 130.458C1142.07 129.054 1147.12 133.459 1149.92 140.296C1152.73 147.133 1153.91 150.01 1149.99 158.074C1141.53 155.092 1140.35 152.216 1137.54 145.379Z" fill="white"/>
<path d="M1150.39 138.283C1143.96 135.594 1139.83 130.807 1141.18 127.59C1142.52 124.373 1148.83 123.945 1155.26 126.633C1161.69 129.322 1164.4 130.453 1167.16 138.45C1159.53 142.102 1156.83 140.971 1150.39 138.283Z" fill="white"/>
<path d="M1124.31 139.34C1127 132.906 1131.79 128.78 1135 130.124C1138.22 131.468 1138.65 137.774 1135.96 144.208C1133.27 150.642 1132.14 153.348 1124.14 156.112C1120.49 148.48 1121.62 145.773 1124.31 139.34Z" fill="white"/>
<path d="M1116.97 126.448C1123.81 123.642 1130.49 124.137 1131.9 127.556C1133.3 130.975 1128.89 136.021 1122.06 138.828C1115.22 141.635 1112.34 142.816 1104.28 138.894C1107.26 130.436 1110.14 129.255 1116.97 126.448Z" fill="white"/>
<path d="M1135.85 106.014C1138.66 112.851 1138.16 119.531 1134.74 120.935C1131.32 122.338 1126.28 117.934 1123.47 111.096C1120.66 104.259 1119.48 101.383 1123.4 93.3187C1131.86 96.3008 1133.04 99.177 1135.85 106.014Z" fill="white"/>
<path d="M1123 113.152C1129.43 115.841 1133.56 120.628 1132.22 123.845C1130.87 127.062 1124.57 127.49 1118.13 124.801C1111.7 122.113 1108.99 120.982 1106.23 112.985C1113.86 109.332 1116.57 110.463 1123 113.152Z" fill="white"/>
<path d="M1149.44 111.948C1146.75 118.381 1141.97 122.507 1138.75 121.163C1135.53 119.819 1135.1 113.513 1137.79 107.079C1140.48 100.645 1141.61 97.9389 1149.61 95.1755C1153.26 102.807 1152.13 105.514 1149.44 111.948Z" fill="white"/>
<path d="M1152.05 124.217C1146.22 126.612 1140.73 126.705 1139.79 124.425C1138.86 122.145 1142.83 118.355 1148.66 115.959C1154.5 113.564 1156.95 112.556 1163.36 114.75C1160.34 120.813 1157.89 121.821 1152.05 124.217Z" fill="#FF88B4"/>
<path d="M1138.18 141.052C1135.78 135.218 1135.69 129.729 1137.97 128.793C1140.25 127.857 1144.04 131.828 1146.43 137.663C1148.83 143.497 1149.84 145.952 1147.64 152.36C1141.58 149.342 1140.57 146.887 1138.18 141.052Z" fill="#FF88B4"/>
<path d="M1148.02 134.987C1142.52 132.687 1138.78 129.09 1139.67 126.954C1140.56 124.817 1145.75 124.95 1151.25 127.25C1156.76 129.55 1159.07 130.518 1161.9 136.244C1155.84 138.255 1153.53 137.287 1148.02 134.987Z" fill="#FF88B4"/>
<path d="M1127.53 137.007C1129.84 131.492 1133.44 127.744 1135.57 128.637C1137.71 129.53 1137.57 134.725 1135.27 140.24C1132.96 145.756 1131.99 148.076 1126.26 150.915C1124.26 144.843 1125.23 142.523 1127.53 137.007Z" fill="#FF88B4"/>
<path d="M1121.34 127.176C1127.17 124.781 1132.66 124.687 1133.6 126.968C1134.54 129.248 1130.56 133.038 1124.73 135.433C1118.9 137.829 1116.44 138.837 1110.03 136.643C1113.05 130.579 1115.51 129.572 1121.34 127.176Z" fill="#FF88B4"/>
<path d="M1135.22 110.34C1137.61 116.175 1137.71 121.664 1135.43 122.6C1133.14 123.536 1129.35 119.565 1126.96 113.73C1124.56 107.895 1123.56 105.441 1125.75 99.0324C1131.81 102.051 1132.82 104.505 1135.22 110.34Z" fill="#FF88B4"/>
<path d="M1125.38 116.436C1130.88 118.735 1134.61 122.33 1133.72 124.467C1132.83 126.603 1127.65 126.472 1122.15 124.173C1116.64 121.875 1114.33 120.908 1111.5 115.183C1117.56 113.171 1119.88 114.138 1125.38 116.436Z" fill="#FF88B4"/>
<path d="M1146.08 114.364C1143.79 119.853 1140.2 123.578 1138.06 122.686C1135.92 121.793 1136.05 116.619 1138.34 111.131C1140.64 105.642 1141.6 103.333 1147.32 100.516C1149.34 106.566 1148.37 108.875 1146.08 114.364Z" fill="#FF88B4"/>
<circle cx="1136.7" cy="125.696" r="6.17647" transform="rotate(67.6797 1136.7 125.696)" fill="#FF6CA3"/>
</svg>
