<svg width="38" height="38" viewBox="0 0 38 38" fill="none" xmlns="http://www.w3.org/2000/svg">
<rect width="38" height="38" rx="16" fill="#FF6CA3"/>
<path d="M17.3018 9.42822L18.3857 8.34424C18.8447 7.88525 19.5869 7.88525 20.041 8.34424L29.5332 17.8315C29.9922 18.2905 29.9922 19.0327 29.5332 19.4868L20.041 28.979C19.582 29.438 18.8398 29.438 18.3857 28.979L17.3018 27.895C16.8379 27.4312 16.8477 26.6743 17.3213 26.2202L23.2051 20.6147H9.17188C8.52246 20.6147 8 20.0923 8 19.4429V17.8804C8 17.231 8.52246 16.7085 9.17188 16.7085H23.2051L17.3213 11.103C16.8428 10.6489 16.833 9.89209 17.3018 9.42822Z" fill="white"/>
</svg>
