<svg width="343" height="98" viewBox="0 0 343 98" fill="none" xmlns="http://www.w3.org/2000/svg">
<path d="M6.048 73.576C4.896 73.576 3.96 73.312 3.24 72.784C2.568 72.256 2.16 71.56 2.016 70.696C1.872 69.784 2.04 68.776 2.52 67.672L21.528 25.552C22.152 24.16 22.896 23.176 23.76 22.6C24.672 21.976 25.704 21.664 26.856 21.664C27.96 21.664 28.944 21.976 29.808 22.6C30.72 23.176 31.488 24.16 32.112 25.552L51.192 67.672C51.72 68.776 51.912 69.784 51.768 70.696C51.624 71.608 51.216 72.328 50.544 72.856C49.872 73.336 48.984 73.576 47.88 73.576C46.536 73.576 45.48 73.264 44.712 72.64C43.992 71.968 43.344 70.96 42.768 69.616L38.088 58.744L41.976 61.264H11.592L15.48 58.744L10.872 69.616C10.248 71.008 9.6 72.016 8.928 72.64C8.256 73.264 7.296 73.576 6.048 73.576ZM26.712 32.248L16.632 56.224L14.76 53.92H38.808L37.008 56.224L26.856 32.248H26.712ZM64.0181 73C62.4341 73 61.2101 72.592 60.3461 71.776C59.5301 70.912 59.1221 69.688 59.1221 68.104V27.136C59.1221 25.552 59.5301 24.352 60.3461 23.536C61.2101 22.672 62.4341 22.24 64.0181 22.24H81.2981C84.8501 22.24 87.8741 22.768 90.3701 23.824C92.8661 24.88 94.7621 26.392 96.0581 28.36C97.4021 30.328 98.0741 32.68 98.0741 35.416C98.0741 38.488 97.1861 41.08 95.4101 43.192C93.6341 45.304 91.2101 46.72 88.1381 47.44V46.36C91.6901 46.888 94.4501 48.232 96.4181 50.392C98.3861 52.552 99.3701 55.36 99.3701 58.816C99.3701 63.328 97.8341 66.832 94.7621 69.328C91.7381 71.776 87.5141 73 82.0901 73H64.0181ZM67.9781 66.016H80.9381C84.2021 66.016 86.6021 65.392 88.1381 64.144C89.6741 62.848 90.4421 60.928 90.4421 58.384C90.4421 55.792 89.6741 53.872 88.1381 52.624C86.6021 51.376 84.2021 50.752 80.9381 50.752H67.9781V66.016ZM67.9781 43.768H79.7141C82.8821 43.768 85.2341 43.168 86.7701 41.968C88.3541 40.72 89.1461 38.896 89.1461 36.496C89.1461 34.096 88.3541 32.296 86.7701 31.096C85.2341 29.848 82.8821 29.224 79.7141 29.224H67.9781V43.768ZM108.845 73.576C107.693 73.576 106.757 73.312 106.037 72.784C105.365 72.256 104.957 71.56 104.813 70.696C104.669 69.784 104.837 68.776 105.317 67.672L124.325 25.552C124.949 24.16 125.693 23.176 126.557 22.6C127.469 21.976 128.501 21.664 129.653 21.664C130.757 21.664 131.741 21.976 132.605 22.6C133.517 23.176 134.285 24.16 134.909 25.552L153.989 67.672C154.517 68.776 154.709 69.784 154.565 70.696C154.421 71.608 154.013 72.328 153.341 72.856C152.669 73.336 151.781 73.576 150.677 73.576C149.333 73.576 148.277 73.264 147.509 72.64C146.789 71.968 146.141 70.96 145.565 69.616L140.885 58.744L144.773 61.264H114.389L118.277 58.744L113.669 69.616C113.045 71.008 112.397 72.016 111.725 72.64C111.053 73.264 110.093 73.576 108.845 73.576ZM129.509 32.248L119.429 56.224L117.557 53.92H141.605L139.805 56.224L129.653 32.248H129.509ZM184.48 73.72C179.2 73.72 174.664 72.664 170.872 70.552C167.128 68.392 164.248 65.368 162.232 61.48C160.216 57.544 159.208 52.912 159.208 47.584C159.208 43.6 159.784 40.024 160.936 36.856C162.088 33.64 163.744 30.904 165.904 28.648C168.064 26.344 170.704 24.592 173.824 23.392C176.992 22.144 180.544 21.52 184.48 21.52C187.12 21.52 189.712 21.856 192.256 22.528C194.8 23.2 197.032 24.16 198.952 25.408C199.96 26.032 200.632 26.8 200.968 27.712C201.304 28.576 201.376 29.44 201.184 30.304C200.992 31.12 200.584 31.816 199.96 32.392C199.384 32.968 198.64 33.304 197.728 33.4C196.864 33.448 195.904 33.136 194.848 32.464C193.36 31.504 191.752 30.808 190.024 30.376C188.296 29.944 186.544 29.728 184.768 29.728C181.36 29.728 178.48 30.424 176.128 31.816C173.776 33.208 172 35.224 170.8 37.864C169.6 40.504 169 43.744 169 47.584C169 51.376 169.6 54.616 170.8 57.304C172 59.992 173.776 62.032 176.128 63.424C178.48 64.816 181.36 65.512 184.768 65.512C186.592 65.512 188.392 65.296 190.168 64.864C191.944 64.384 193.624 63.664 195.208 62.704C196.264 62.08 197.2 61.816 198.016 61.912C198.88 61.96 199.6 62.248 200.176 62.776C200.752 63.304 201.136 63.976 201.328 64.792C201.52 65.56 201.472 66.376 201.184 67.24C200.896 68.056 200.32 68.776 199.456 69.4C197.536 70.792 195.232 71.872 192.544 72.64C189.904 73.36 187.216 73.72 184.48 73.72ZM209.251 73.576C208.099 73.576 207.163 73.312 206.443 72.784C205.771 72.256 205.363 71.56 205.219 70.696C205.075 69.784 205.243 68.776 205.723 67.672L224.731 25.552C225.355 24.16 226.099 23.176 226.963 22.6C227.875 21.976 228.907 21.664 230.059 21.664C231.163 21.664 232.147 21.976 233.011 22.6C233.923 23.176 234.691 24.16 235.315 25.552L254.395 67.672C254.923 68.776 255.115 69.784 254.971 70.696C254.827 71.608 254.419 72.328 253.747 72.856C253.075 73.336 252.187 73.576 251.083 73.576C249.739 73.576 248.683 73.264 247.915 72.64C247.195 71.968 246.547 70.96 245.971 69.616L241.291 58.744L245.179 61.264H214.795L218.683 58.744L214.075 69.616C213.451 71.008 212.803 72.016 212.131 72.64C211.459 73.264 210.499 73.576 209.251 73.576ZM229.915 32.248L219.835 56.224L217.963 53.92H242.011L240.211 56.224L230.059 32.248H229.915ZM273.548 73.576C272.06 73.576 270.908 73.168 270.092 72.352C269.324 71.488 268.94 70.312 268.94 68.824V29.944H254.9C253.652 29.944 252.668 29.608 251.948 28.936C251.276 28.216 250.94 27.256 250.94 26.056C250.94 24.808 251.276 23.872 251.948 23.248C252.668 22.576 253.652 22.24 254.9 22.24H292.196C293.444 22.24 294.404 22.576 295.076 23.248C295.796 23.872 296.156 24.808 296.156 26.056C296.156 27.256 295.796 28.216 295.076 28.936C294.404 29.608 293.444 29.944 292.196 29.944H278.156V68.824C278.156 70.312 277.772 71.488 277.004 72.352C276.236 73.168 275.084 73.576 273.548 73.576ZM306.315 73C304.731 73 303.507 72.592 302.643 71.776C301.827 70.912 301.419 69.688 301.419 68.104V27.136C301.419 25.552 301.827 24.352 302.643 23.536C303.507 22.672 304.731 22.24 306.315 22.24H332.019C333.219 22.24 334.131 22.552 334.755 23.176C335.427 23.8 335.763 24.688 335.763 25.84C335.763 27.04 335.427 27.976 334.755 28.648C334.131 29.272 333.219 29.584 332.019 29.584H310.275V43.552H330.435C331.683 43.552 332.619 43.864 333.243 44.488C333.867 45.112 334.179 46.024 334.179 47.224C334.179 48.424 333.867 49.336 333.243 49.96C332.619 50.584 331.683 50.896 330.435 50.896H310.275V65.656H332.019C333.219 65.656 334.131 65.968 334.755 66.592C335.427 67.216 335.763 68.128 335.763 69.328C335.763 70.528 335.427 71.44 334.755 72.064C334.131 72.688 333.219 73 332.019 73H306.315Z" fill="#FF6CA3"/>
<path d="M10.048 73.576C8.896 73.576 7.96 73.312 7.24 72.784C6.568 72.256 6.16 71.56 6.016 70.696C5.872 69.784 6.04 68.776 6.52 67.672L25.528 25.552C26.152 24.16 26.896 23.176 27.76 22.6C28.672 21.976 29.704 21.664 30.856 21.664C31.96 21.664 32.944 21.976 33.808 22.6C34.72 23.176 35.488 24.16 36.112 25.552L55.192 67.672C55.72 68.776 55.912 69.784 55.768 70.696C55.624 71.608 55.216 72.328 54.544 72.856C53.872 73.336 52.984 73.576 51.88 73.576C50.536 73.576 49.48 73.264 48.712 72.64C47.992 71.968 47.344 70.96 46.768 69.616L42.088 58.744L45.976 61.264H15.592L19.48 58.744L14.872 69.616C14.248 71.008 13.6 72.016 12.928 72.64C12.256 73.264 11.296 73.576 10.048 73.576ZM30.712 32.248L20.632 56.224L18.76 53.92H42.808L41.008 56.224L30.856 32.248H30.712ZM68.0181 73C66.4341 73 65.2101 72.592 64.3461 71.776C63.5301 70.912 63.1221 69.688 63.1221 68.104V27.136C63.1221 25.552 63.5301 24.352 64.3461 23.536C65.2101 22.672 66.4341 22.24 68.0181 22.24H85.2981C88.8501 22.24 91.8741 22.768 94.3701 23.824C96.8661 24.88 98.7621 26.392 100.058 28.36C101.402 30.328 102.074 32.68 102.074 35.416C102.074 38.488 101.186 41.08 99.4101 43.192C97.6341 45.304 95.2101 46.72 92.1381 47.44V46.36C95.6901 46.888 98.4501 48.232 100.418 50.392C102.386 52.552 103.37 55.36 103.37 58.816C103.37 63.328 101.834 66.832 98.7621 69.328C95.7381 71.776 91.5141 73 86.0901 73H68.0181ZM71.9781 66.016H84.9381C88.2021 66.016 90.6021 65.392 92.1381 64.144C93.6741 62.848 94.4421 60.928 94.4421 58.384C94.4421 55.792 93.6741 53.872 92.1381 52.624C90.6021 51.376 88.2021 50.752 84.9381 50.752H71.9781V66.016ZM71.9781 43.768H83.7141C86.8821 43.768 89.2341 43.168 90.7701 41.968C92.3541 40.72 93.1461 38.896 93.1461 36.496C93.1461 34.096 92.3541 32.296 90.7701 31.096C89.2341 29.848 86.8821 29.224 83.7141 29.224H71.9781V43.768ZM112.845 73.576C111.693 73.576 110.757 73.312 110.037 72.784C109.365 72.256 108.957 71.56 108.813 70.696C108.669 69.784 108.837 68.776 109.317 67.672L128.325 25.552C128.949 24.16 129.693 23.176 130.557 22.6C131.469 21.976 132.501 21.664 133.653 21.664C134.757 21.664 135.741 21.976 136.605 22.6C137.517 23.176 138.285 24.16 138.909 25.552L157.989 67.672C158.517 68.776 158.709 69.784 158.565 70.696C158.421 71.608 158.013 72.328 157.341 72.856C156.669 73.336 155.781 73.576 154.677 73.576C153.333 73.576 152.277 73.264 151.509 72.64C150.789 71.968 150.141 70.96 149.565 69.616L144.885 58.744L148.773 61.264H118.389L122.277 58.744L117.669 69.616C117.045 71.008 116.397 72.016 115.725 72.64C115.053 73.264 114.093 73.576 112.845 73.576ZM133.509 32.248L123.429 56.224L121.557 53.92H145.605L143.805 56.224L133.653 32.248H133.509ZM188.48 73.72C183.2 73.72 178.664 72.664 174.872 70.552C171.128 68.392 168.248 65.368 166.232 61.48C164.216 57.544 163.208 52.912 163.208 47.584C163.208 43.6 163.784 40.024 164.936 36.856C166.088 33.64 167.744 30.904 169.904 28.648C172.064 26.344 174.704 24.592 177.824 23.392C180.992 22.144 184.544 21.52 188.48 21.52C191.12 21.52 193.712 21.856 196.256 22.528C198.8 23.2 201.032 24.16 202.952 25.408C203.96 26.032 204.632 26.8 204.968 27.712C205.304 28.576 205.376 29.44 205.184 30.304C204.992 31.12 204.584 31.816 203.96 32.392C203.384 32.968 202.64 33.304 201.728 33.4C200.864 33.448 199.904 33.136 198.848 32.464C197.36 31.504 195.752 30.808 194.024 30.376C192.296 29.944 190.544 29.728 188.768 29.728C185.36 29.728 182.48 30.424 180.128 31.816C177.776 33.208 176 35.224 174.8 37.864C173.6 40.504 173 43.744 173 47.584C173 51.376 173.6 54.616 174.8 57.304C176 59.992 177.776 62.032 180.128 63.424C182.48 64.816 185.36 65.512 188.768 65.512C190.592 65.512 192.392 65.296 194.168 64.864C195.944 64.384 197.624 63.664 199.208 62.704C200.264 62.08 201.2 61.816 202.016 61.912C202.88 61.96 203.6 62.248 204.176 62.776C204.752 63.304 205.136 63.976 205.328 64.792C205.52 65.56 205.472 66.376 205.184 67.24C204.896 68.056 204.32 68.776 203.456 69.4C201.536 70.792 199.232 71.872 196.544 72.64C193.904 73.36 191.216 73.72 188.48 73.72ZM213.251 73.576C212.099 73.576 211.163 73.312 210.443 72.784C209.771 72.256 209.363 71.56 209.219 70.696C209.075 69.784 209.243 68.776 209.723 67.672L228.731 25.552C229.355 24.16 230.099 23.176 230.963 22.6C231.875 21.976 232.907 21.664 234.059 21.664C235.163 21.664 236.147 21.976 237.011 22.6C237.923 23.176 238.691 24.16 239.315 25.552L258.395 67.672C258.923 68.776 259.115 69.784 258.971 70.696C258.827 71.608 258.419 72.328 257.747 72.856C257.075 73.336 256.187 73.576 255.083 73.576C253.739 73.576 252.683 73.264 251.915 72.64C251.195 71.968 250.547 70.96 249.971 69.616L245.291 58.744L249.179 61.264H218.795L222.683 58.744L218.075 69.616C217.451 71.008 216.803 72.016 216.131 72.64C215.459 73.264 214.499 73.576 213.251 73.576ZM233.915 32.248L223.835 56.224L221.963 53.92H246.011L244.211 56.224L234.059 32.248H233.915ZM277.548 73.576C276.06 73.576 274.908 73.168 274.092 72.352C273.324 71.488 272.94 70.312 272.94 68.824V29.944H258.9C257.652 29.944 256.668 29.608 255.948 28.936C255.276 28.216 254.94 27.256 254.94 26.056C254.94 24.808 255.276 23.872 255.948 23.248C256.668 22.576 257.652 22.24 258.9 22.24H296.196C297.444 22.24 298.404 22.576 299.076 23.248C299.796 23.872 300.156 24.808 300.156 26.056C300.156 27.256 299.796 28.216 299.076 28.936C298.404 29.608 297.444 29.944 296.196 29.944H282.156V68.824C282.156 70.312 281.772 71.488 281.004 72.352C280.236 73.168 279.084 73.576 277.548 73.576ZM310.315 73C308.731 73 307.507 72.592 306.643 71.776C305.827 70.912 305.419 69.688 305.419 68.104V27.136C305.419 25.552 305.827 24.352 306.643 23.536C307.507 22.672 308.731 22.24 310.315 22.24H336.019C337.219 22.24 338.131 22.552 338.755 23.176C339.427 23.8 339.763 24.688 339.763 25.84C339.763 27.04 339.427 27.976 338.755 28.648C338.131 29.272 337.219 29.584 336.019 29.584H314.275V43.552H334.435C335.683 43.552 336.619 43.864 337.243 44.488C337.867 45.112 338.179 46.024 338.179 47.224C338.179 48.424 337.867 49.336 337.243 49.96C336.619 50.584 335.683 50.896 334.435 50.896H314.275V65.656H336.019C337.219 65.656 338.131 65.968 338.755 66.592C339.427 67.216 339.763 68.128 339.763 69.328C339.763 70.528 339.427 71.44 338.755 72.064C338.131 72.688 337.219 73 336.019 73H310.315Z" fill="url(#paint0_linear_9_109)"/>
<defs>
<linearGradient id="paint0_linear_9_109" x1="173.95" y1="-1.68788e-09" x2="173.95" y2="98" gradientUnits="userSpaceOnUse">
<stop offset="0.324007" stop-color="#1F9188"/>
<stop offset="0.612482" stop-color="#FF88B4"/>
</linearGradient>
</defs>
</svg>